<svg xmlns="http://www.w3.org/2000/svg" width="56" height="56" fill="none" viewBox="0 0 56 56">
  <path fill="#E5A24A" d="M18.593 40.831C9.453 40.251 0 34.856 0 26.833c0-4.655 3.26-8.166 7.583-8.166 2.528 0 5.25 1.506 5.25 4.812 0 2.661-1.74 4.521-4.229 4.521-1.862 0-3.937-1.437-3.937-3.5H7c0 .556.84 1.167 1.604 1.167 1.76 0 1.896-1.676 1.896-2.188C10.5 21.65 8.928 21 7.583 21c-2.992 0-5.25 2.507-5.25 5.833 0 6.653 8.342 11.157 16.407 11.67l-.147 2.328zm18.814 0l-.148-2.329c8.066-.512 16.408-5.016 16.408-11.669 0-3.326-2.258-5.833-5.25-5.833-1.346 0-2.917.65-2.917 2.48 0 .511.136 2.187 1.896 2.187.764 0 1.604-.61 1.604-1.167h2.333c0 2.063-2.075 3.5-3.937 3.5-2.49 0-4.23-1.86-4.23-4.52 0-3.307 2.723-4.813 5.25-4.813 4.324 0 7.584 3.511 7.584 8.166 0 8.023-9.453 13.418-18.593 13.998zM31.5 46.667v1.166h-7v-1.166l-2.333-14h11.666l-2.333 14z"/>
  <path fill="#FFBA57" d="M37.333 50.167H18.667v-1.4c0-.774 5.833-2.1 5.833-2.1h7s5.833 1.326 5.833 2.1v1.4z"/>
  <path fill="#A5D6A7" d="M18.667 7h18.666v22.167H18.667V7z"/>
  <path fill="#388E3C" d="M28 11.667a2.333 2.333 0 100 4.666 2.333 2.333 0 000-4.666zm0 7a5.834 5.834 0 100 11.667 5.834 5.834 0 000-11.667z"/>
  <path fill="#388E3C" d="M19.833 8.167h16.334V28H19.833V8.167zM17.5 5.833v24.5h21v-24.5h-21z"/>
  <path fill="#1B5E20" d="M17.5 21h21v2.333h-21V21z"/>
  <path fill="#43A047" d="M19.833 21h16.334v2.333H19.833V21z"/>
  <path fill="#388E3C" d="M18.667 7v4.07c.489.37 1.09.597 1.75.597a2.916 2.916 0 002.916-2.917c0-.66-.227-1.261-.596-1.75h-4.07zm14.596 0a2.896 2.896 0 00-.596 1.75 2.916 2.916 0 002.916 2.917c.66 0 1.262-.228 1.75-.597V7h-4.07z"/>
  <path fill="#1B5E20" d="M23.36 21a5.782 5.782 0 00-1.193 3.5 5.834 5.834 0 0011.666 0c0-1.32-.455-2.522-1.193-3.5h-9.28z"/>
  <path fill="#FFBA57" d="M30.333 43.167h-4.666C17.29 43.167 10.5 36.377 10.5 28v-4.667h35V28c0 8.377-6.79 15.167-15.167 15.167z"/>
</svg>
